{"glyphs":{":":{"x_min":0,"x_max":200,"ha":200,"o":"m 150 0 l 0 0 l 0 150 l 150 150 l 150 0 z m 150 250 l 0 250 l 0 400 l 150 400 l 150 250 z"},"$":{"x_min":0,"x_max":650,"ha":650,"o":"m 126 0 l -3 0 l -3 150 l 166 150 l 193 250 q 112 252 56 310 q 0 369 0 449 q 0 532 58 590 q 117 649 199 649 l 299 650 l 326 750 l 481 750 l 455 650 l 599 650 l 599 500 l 415 500 l 388 400 q 388 399 388 399 q 389 399 390 399 q 390 399 391 399 q 392 399 393 399 q 393 399 394 399 q 395 399 395 399 q 478 399 536 340 q 595 282 595 199 q 595 117 536 58 q 478 0 395 0 l 281 0 l 248 -125 l 93 -125 l 126 0 z m 321 150 l 395 150 q 416 149 430 164 q 445 179 445 199 q 445 220 430 234 q 416 249 395 249 l 348 250 l 321 150 z m 259 500 l 199 500 q 178 499 164 484 q 149 470 149 449 q 149 429 164 414 q 180 399 199 399 q 199 399 208 399 q 218 399 233 399 l 259 500 z"},"?":{"x_min":0,"x_max":600,"ha":600,"o":"m 304 0 l 154 0 l 154 150 l 304 150 l 304 0 z m 350 400 q 370 399 385 414 q 400 429 400 449 q 400 470 386 484 q 371 499 350 499 l 0 500 l 0 650 l 350 650 q 433 649 492 590 q 550 532 550 449 q 550 367 492 308 q 433 249 350 249 q 332 249 318 234 q 304 220 304 199 l 154 200 q 154 282 212 340 q 271 399 350 399 z"},"<":{"x_min":0,"x_max":913,"ha":913,"o":"m 0 325 l 325 650 l 538 650 l 213 325 l 538 0 l 325 0 l 0 325 z"},"'":{"x_min":0,"x_max":150,"ha":150,"o":"m 100 650 l 0 650 l 0 800 l 100 800 l 100 650 z"},"=":{"x_min":0,"x_max":700,"ha":700,"o":"m 650 250 l 650 100 l 0 100 l 0 250 l 650 250 z m 650 500 l 650 350 l 0 350 l 0 500 l 650 500 z"},"a":{"x_min":0,"x_max":913,"ha":913,"o":"m 0 0 l 604 604 q 628 627 654 638 q 681 649 713 649 q 775 649 819 605 q 863 561 863 499 l 863 0 l 713 0 l 713 250 l 463 250 l 213 0 l 0 0 z m 713 450 q 713 460 706 465 q 700 470 691 470 q 690 470 690 470 q 689 471 689 472 q 689 473 689 474 q 689 474 689 475 q 689 475 686 473 q 684 471 676 463 l 613 400 l 713 400 l 713 450 z"},"L":{"x_min":0,"x_max":650,"ha":650,"o":"m 600 0 l 0 0 l 0 650 l 150 650 l 150 150 l 600 150 l 600 0 z"},"3":{"x_min":0,"x_max":650,"ha":650,"o":"m 0 150 l 400 150 q 421 149 436 164 q 450 179 450 199 q 450 220 436 234 q 421 249 400 249 l 25 250 l 25 400 l 394 400 q 414 399 429 414 q 444 429 444 449 q 444 470 429 484 q 414 499 394 499 l 0 500 l 0 650 q 0 649 62 649 q 124 649 199 649 q 260 649 314 649 q 369 649 389 649 q 472 649 530 590 q 589 532 589 449 q 589 415 578 384 q 568 354 548 328 q 571 302 586 269 q 600 236 600 199 q 600 117 542 58 q 483 0 400 0 q 381 0 324 0 q 268 0 204 0 q 127 0 64 0 q 0 0 0 0 l 0 150 z"},";":{"x_min":0,"x_max":200,"ha":200,"o":"m 0 -100 l 0 -50 l 50 0 l 0 0 l 0 150 l 150 150 l 150 0 l 0 -100 z m 150 250 l 0 250 l 0 400 l 150 400 l 150 250 z"},"J":{"x_min":0,"x_max":800,"ha":800,"o":"m 750 650 l 750 200 q 750 117 692 58 q 633 0 550 0 l 200 0 q 118 0 59 58 q 0 117 0 199 l 0 350 l 150 350 l 150 200 q 150 180 164 166 q 178 152 195 149 q 196 149 198 149 q 199 149 200 149 l 550 150 q 571 149 586 164 q 600 179 600 199 l 600 650 l 750 650 z"},"V":{"x_min":0,"x_max":800,"ha":800,"o":"m 549 100 q 519 47 476 24 q 434 0 375 0 q 317 0 274 26 q 230 51 203 99 l 0 450 l 0 650 l 150 650 l 150 490 l 333 175 q 337 166 340 162 q 344 157 347 154 q 351 151 356 150 q 360 149 365 149 q 367 149 370 149 q 372 149 375 149 q 386 149 394 150 q 401 151 408 158 q 410 161 413 165 q 416 169 419 174 l 600 488 l 600 650 l 750 650 l 750 449 l 549 100 z m 300 0 l 450 0 l 300 0 z"},"\"":{"x_min":0,"x_max":300,"ha":300,"o":"m 100 650 l 0 650 l 0 800 l 100 800 l 100 650 z m 250 650 l 150 650 l 150 800 l 250 800 l 250 650 z"},"7":{"x_min":0,"x_max":650,"ha":650,"o":"m 0 650 l 400 650 q 483 649 542 590 q 600 532 600 449 l 600 0 l 450 0 l 450 450 q 450 470 436 484 q 421 499 400 499 l 0 500 l 0 650 z"},"S":{"x_min":0,"x_max":800,"ha":800,"o":"m 546 250 q 546 249 484 249 q 421 249 345 249 q 305 249 267 249 q 229 249 200 249 q 118 249 59 308 q 0 367 0 449 q 0 532 59 590 q 118 649 200 649 l 750 650 l 750 500 l 200 500 q 180 499 165 484 q 150 470 150 449 q 150 429 166 414 q 181 399 200 399 q 200 399 254 399 q 309 399 374 399 q 433 399 484 399 q 535 399 546 399 q 629 399 688 340 q 746 281 746 198 q 746 116 688 58 q 629 -1 546 -1 l -1 -1 l -1 150 l 546 150 q 567 149 582 164 q 596 179 596 199 q 596 220 582 234 q 567 249 546 249 z"},"}":{"x_min":0,"x_max":350,"ha":350,"o":"m 0 -150 l 0 0 l 50 0 q 69 0 83 15 q 97 30 100 49 q 100 49 101 92 q 102 136 107 188 q 112 235 122 276 q 132 316 150 325 q 132 334 122 374 q 112 414 107 461 q 102 513 101 556 q 100 599 100 599 q 97 619 83 634 q 69 649 50 649 q 46 649 42 649 q 37 649 32 649 q 20 649 10 649 q 0 649 0 649 l 0 800 l 50 800 q 133 799 192 740 q 250 682 250 599 q 250 599 250 597 q 250 595 250 590 q 250 574 252 538 q 253 502 260 462 q 265 429 274 399 q 284 369 300 349 l 300 300 q 285 279 275 250 q 265 220 260 188 q 253 146 252 108 q 250 71 250 56 q 250 52 250 50 q 250 49 250 49 q 250 -33 192 -92 q 133 -150 50 -150 l 0 -150 z"},"Z":{"x_min":0,"x_max":800,"ha":800,"o":"m 520 500 q 519 499 438 499 q 356 499 259 499 q 160 499 79 499 q -2 499 -2 499 l -3 650 l 618 650 q 669 649 706 612 q 743 576 743 524 q 743 484 720 456 q 697 427 661 407 l 211 150 l 750 150 l 750 0 l 119 -1 q 67 -1 31 35 q -5 71 -5 123 q -5 161 14 190 q 34 220 65 235 l 520 500 z"},"x":{"x_min":0,"x_max":800,"ha":800,"o":"m 200 250 q 199 249 198 249 q 196 249 195 249 q 178 247 164 233 q 150 219 150 199 l 150 0 l 0 0 l 0 200 q 0 235 12 267 q 23 299 44 324 q 23 350 12 382 q 0 414 0 449 l 0 650 l 150 650 l 150 450 q 150 430 164 416 q 178 402 195 399 q 196 399 198 399 q 199 399 200 399 l 550 400 q 571 399 586 414 q 600 429 600 449 l 600 650 l 750 650 l 750 450 q 750 414 738 382 q 727 350 705 324 q 727 299 738 267 q 750 235 750 199 l 750 0 l 600 0 l 600 200 q 600 220 586 234 q 571 249 550 249 l 200 250 z"},")":{"x_min":0,"x_max":300,"ha":300,"o":"m 0 -150 l 0 0 l 50 0 q 51 0 52 0 q 54 0 55 0 q 72 2 86 16 q 100 30 100 49 l 100 600 q 100 612 92 623 q 83 634 72 640 q 66 644 60 646 q 54 649 50 649 l 0 650 l 0 800 l 50 800 q 133 799 192 740 q 250 682 250 599 q 250 591 250 507 q 250 423 250 324 q 250 221 250 135 q 250 49 250 49 q 250 -33 192 -92 q 133 -150 50 -150 l 0 -150 z"},"&":{"x_min":0,"x_max":683,"ha":683,"o":"m 399 591 q 393 529 360 482 q 327 434 286 395 q 297 381 308 367 q 319 353 331 338 q 351 314 372 290 q 393 266 414 243 q 418 239 422 235 q 425 231 429 227 q 438 239 442 247 q 446 255 445 253 l 584 194 q 582 191 571 170 q 560 148 536 119 q 579 81 605 60 q 631 38 630 40 l 528 -69 q 527 -66 500 -40 q 472 -13 430 30 q 396 11 354 0 q 313 -11 260 -11 q 253 -11 246 -11 q 239 -11 231 -10 q 230 -10 230 -10 q 229 -10 228 -10 q 143 -1 72 66 q 0 134 0 228 q 0 230 0 232 q 0 234 1 236 q 1 238 1 240 q 1 242 1 244 q 5 289 39 333 q 73 377 115 418 q 91 462 76 504 q 61 547 59 584 q 60 594 64 619 q 69 644 82 671 q 99 706 133 735 q 167 764 228 764 q 233 764 238 764 q 243 764 248 763 q 255 762 262 761 q 268 760 275 758 q 322 744 361 702 q 400 659 399 600 q 399 598 399 596 q 399 593 399 590 z m 189 303 q 174 284 164 266 q 153 249 151 232 q 151 230 151 228 q 151 226 151 224 q 151 190 177 167 q 203 144 245 139 q 252 138 258 138 q 264 137 270 137 q 284 137 296 139 q 309 141 319 145 q 311 154 302 164 q 294 173 286 183 q 261 211 236 242 q 212 272 189 302 z m 209 573 q 209 571 209 570 q 209 569 209 568 q 209 567 209 566 q 209 565 209 564 q 209 558 210 552 q 210 547 211 541 q 212 535 214 529 q 215 523 218 517 q 238 537 250 556 q 262 574 263 590 q 263 591 263 592 q 263 592 263 593 q 263 602 258 608 q 252 613 235 614 q 235 614 234 614 q 234 614 234 614 q 234 614 234 614 q 233 614 233 614 q 224 613 218 604 q 213 596 211 586 q 210 583 210 579 q 209 575 209 572 z"},"_":{"x_min":0,"x_max":700,"ha":700,"o":"m 700 150 l 700 0 l 0 0 l 0 150 l 700 150 z"},"v":{"x_min":0,"x_max":913,"ha":913,"o":"m 650 650 l 863 650 l 259 46 q 234 21 208 10 q 182 0 150 0 q 89 0 44 44 q 0 88 0 149 l 0 650 l 150 650 l 150 200 q 150 189 156 184 q 163 178 171 178 q 173 178 173 178 q 173 177 173 175 q 173 174 173 174 q 173 173 173 173 q 173 172 176 174 q 178 177 186 185 l 650 650 z"},"O":{"x_min":0,"x_max":800,"ha":800,"o":"m 200 0 q 118 0 59 58 q 0 117 0 199 q 0 199 0 238 q 0 278 0 325 q 0 368 0 405 q 0 442 0 449 q 0 532 59 590 q 118 649 200 649 l 550 650 q 633 649 692 590 q 750 532 750 449 q 750 442 750 405 q 750 368 750 325 q 750 278 750 238 q 750 199 750 199 q 750 117 692 58 q 633 0 550 0 l 200 0 z m 550 150 q 571 150 586 164 q 600 179 600 199 l 600 450 q 600 467 587 480 q 574 494 559 498 q 557 498 554 498 q 552 499 550 499 l 200 500 q 196 499 190 496 q 184 494 178 490 q 167 484 158 473 q 150 462 150 449 l 150 200 q 150 180 164 166 q 178 152 195 149 q 196 149 198 149 q 199 149 200 149 l 550 150 z"},"(":{"x_min":0,"x_max":300,"ha":300,"o":"m 250 -150 l 200 -150 q 118 -150 59 -92 q 0 -33 0 49 q 0 49 0 135 q 0 221 0 324 q 0 423 0 507 q 0 591 0 599 q 0 682 59 740 q 118 799 200 799 l 250 800 l 250 650 l 200 650 q 196 649 190 646 q 184 644 178 640 q 167 634 158 623 q 150 612 150 599 l 150 50 q 150 30 164 16 q 178 2 195 0 q 196 0 198 0 q 199 0 200 0 l 250 0 l 250 -150 z"},"C":{"x_min":0,"x_max":650,"ha":650,"o":"m 600 0 l 200 0 q 118 0 59 58 q 0 117 0 199 q 0 199 0 238 q 0 278 0 325 q 0 368 0 405 q 0 442 0 449 q 0 532 59 590 q 118 649 200 649 l 600 650 l 600 500 l 200 500 q 197 499 194 498 q 191 498 188 497 q 174 493 162 480 q 150 466 150 449 l 150 200 q 150 179 165 164 q 180 149 200 149 l 600 150 l 600 0 z"},"W":{"x_min":0,"x_max":800,"ha":800,"o":"m 450 650 l 450 150 l 550 150 q 571 149 586 164 q 600 179 600 199 l 600 650 l 750 650 l 750 200 q 750 117 692 58 q 633 0 550 0 l 0 0 l 0 650 l 150 650 l 150 150 l 300 150 l 300 650 l 450 650 z"},"A":{"x_min":0,"x_max":800,"ha":800,"o":"m 201 250 l 150 161 l 150 1 l 0 1 l 0 203 l 203 551 q 229 597 273 624 q 317 650 375 650 q 434 650 476 627 q 519 604 549 550 l 750 203 l 750 1 l 600 1 l 600 164 l 550 250 l 201 250 z m 463 400 l 419 476 q 411 492 400 496 q 390 500 375 500 q 362 500 354 497 q 345 494 337 482 q 336 480 335 478 q 334 477 333 475 l 289 400 l 463 400 z"},"f":{"x_min":0,"x_max":643,"ha":643,"o":"m 0 0 q 0 0 0 70 q 0 140 0 224 q 0 305 0 373 q 0 441 0 449 q 0 532 59 590 q 118 649 200 649 l 594 650 l 594 500 l 200 500 q 180 499 165 484 q 150 470 150 449 l 150 400 l 575 400 l 575 250 l 150 250 l 150 0 l 0 0 z"},"Q":{"x_min":0,"x_max":800,"ha":800,"o":"m 744 -100 l 571 -100 l 514 0 l 200 0 q 118 0 59 58 q 0 117 0 199 q 0 199 0 238 q 0 278 0 325 q 0 368 0 405 q 0 442 0 449 q 0 532 59 590 q 118 649 200 649 l 550 650 q 633 649 692 590 q 750 532 750 449 q 750 442 750 405 q 750 368 750 325 q 750 278 750 238 q 750 199 750 199 q 750 149 726 106 q 703 64 665 35 l 744 -100 z m 600 200 l 600 450 q 600 467 587 480 q 574 494 559 498 q 557 498 554 498 q 552 499 550 499 l 200 500 q 196 499 190 496 q 184 494 178 490 q 167 484 158 473 q 150 462 150 449 l 150 200 q 150 180 164 166 q 178 152 195 149 q 196 149 198 149 q 199 149 200 149 l 428 150 l 399 200 l 571 200 l 589 169 q 594 175 597 183 q 600 191 600 199 z m 744 -100 l 571 -100 l 744 -100 z"},"w":{"x_min":0,"x_max":800,"ha":800,"o":"m 450 650 l 450 150 l 550 150 q 571 149 586 164 q 600 179 600 199 l 600 650 l 750 650 l 750 200 q 750 117 692 58 q 633 0 550 0 l 200 0 q 118 0 59 58 q 0 117 0 199 l 0 650 l 150 650 l 150 200 q 150 180 164 166 q 178 152 195 149 q 196 149 198 149 q 199 149 200 149 l 300 150 l 300 650 l 450 650 z"},"-":{"x_min":0,"x_max":700,"ha":700,"o":"m 650 400 l 650 250 l 0 250 l 0 400 l 650 400 z"},"E":{"x_min":0,"x_max":650,"ha":650,"o":"m 150 150 l 600 150 l 600 0 l 0 0 l 0 650 l 594 650 l 594 500 l 150 500 l 150 400 l 575 400 l 575 250 l 150 250 l 150 150 z"},"s":{"x_min":0,"x_max":800,"ha":800,"o":"m 546 250 q 546 249 484 249 q 421 249 345 249 q 305 249 267 249 q 229 249 200 249 q 118 249 59 308 q 0 367 0 449 q 0 532 59 590 q 118 649 200 649 l 750 650 l 750 500 l 200 500 q 180 499 165 484 q 150 470 150 449 q 150 429 166 414 q 181 399 200 399 q 200 399 254 399 q 309 399 374 399 q 433 399 484 399 q 535 399 546 399 q 629 399 688 340 q 746 281 746 198 q 746 116 688 58 q 629 -1 546 -1 l -1 -1 l -1 150 l 546 150 q 567 149 582 164 q 596 179 596 199 q 596 220 582 234 q 567 249 546 249 z"},">":{"x_min":0,"x_max":913,"ha":913,"o":"m 538 325 l 213 0 l 0 0 l 325 325 l 0 650 l 213 650 l 538 325 z"},"l":{"x_min":0,"x_max":650,"ha":650,"o":"m 600 0 l 200 0 q 118 0 59 58 q 0 117 0 199 l 0 650 l 150 650 l 150 200 q 150 179 165 164 q 180 149 200 149 l 600 150 l 600 0 z"},"8":{"x_min":0,"x_max":610,"ha":610,"o":"m 389 650 q 472 649 530 590 q 589 532 589 449 q 589 415 578 384 q 568 354 548 328 q 571 302 586 269 q 600 236 600 199 q 600 117 542 58 q 483 0 400 0 q 383 0 360 0 q 336 0 312 0 q 273 0 240 0 q 206 0 198 0 q 116 0 57 58 q -2 117 -2 199 q -2 236 13 269 q 28 302 50 328 q 31 354 20 384 q 9 415 9 449 q 9 532 68 590 q 127 649 209 649 q 212 649 240 649 q 267 649 300 649 q 330 649 356 649 q 382 649 389 649 z m 400 150 q 421 149 436 164 q 450 179 450 199 q 450 220 436 234 q 421 249 400 249 l 201 250 q 181 249 166 234 q 151 220 151 199 q 151 179 166 164 q 181 149 201 149 l 400 150 z m 204 500 q 183 499 168 484 q 154 470 154 449 q 154 429 168 414 q 181 399 204 399 l 394 400 q 414 399 429 414 q 444 429 444 449 q 444 470 431 484 q 418 499 394 499 l 204 500 z"},"\\":{"x_min":0,"x_max":443,"ha":443,"o":"m 389 -125 l 234 -125 l 0 750 l 155 750 l 389 -125 z"},"e":{"x_min":0,"x_max":650,"ha":650,"o":"m 150 200 q 150 184 160 172 q 171 159 184 153 q 188 151 192 150 q 196 149 200 149 l 600 150 l 600 0 l 200 0 q 118 0 59 58 q 0 117 0 199 q 0 199 0 238 q 0 278 0 325 q 0 368 0 405 q 0 442 0 449 q 0 532 59 590 q 118 649 200 649 l 594 650 l 594 500 l 200 500 q 180 499 165 484 q 150 470 150 449 l 150 400 l 575 400 l 575 250 l 150 250 l 150 200 z"},"b":{"x_min":0,"x_max":750,"ha":750,"o":"m 0 0 l 0 650 q 0 649 78 649 q 155 649 248 649 q 328 649 398 649 q 469 649 489 649 q 572 649 630 590 q 689 532 689 449 q 689 415 678 384 q 668 354 648 328 q 671 302 686 269 q 700 236 700 199 q 700 117 642 58 q 583 0 500 0 q 480 0 408 0 q 336 0 253 0 q 158 0 79 0 q 0 0 0 0 z m 550 200 q 550 220 536 234 q 521 249 500 249 l 149 250 l 150 150 l 500 150 q 521 149 536 164 q 550 179 550 199 z m 494 500 l 150 500 l 150 400 l 494 400 q 514 399 529 414 q 544 429 544 449 q 544 470 529 484 q 514 499 494 499 z"},"%":{"x_min":0,"x_max":850,"ha":850,"o":"m 199 -125 l 433 750 l 588 750 l 354 -125 l 199 -125 z m 600 -125 q 559 -125 530 -96 q 500 -66 500 -25 q 500 -25 500 -6 q 500 13 500 37 q 500 58 500 76 q 500 95 500 99 q 500 140 530 170 q 559 199 600 199 l 700 200 q 741 199 770 170 q 800 140 800 99 q 800 95 800 76 q 800 58 800 37 q 800 13 800 -6 q 800 -25 800 -25 q 800 -66 770 -96 q 741 -125 700 -125 l 600 -125 z m 688 -29 q 696 -28 701 -23 q 706 -18 706 -10 l 706 84 q 706 90 702 95 q 697 100 692 101 q 691 102 690 102 q 689 102 688 102 l 613 103 q 612 102 610 101 q 607 100 604 99 q 600 96 597 92 q 594 88 594 83 l 594 -10 q 594 -17 599 -22 q 604 -28 611 -29 q 611 -29 612 -29 q 612 -29 613 -29 l 688 -29 z m 100 413 q 59 412 30 442 q 0 471 0 512 q 0 512 0 532 q 0 551 0 575 q 0 596 0 614 q 0 633 0 637 q 0 678 30 708 q 59 737 100 737 l 200 738 q 241 737 270 708 q 300 678 300 637 q 300 633 300 614 q 300 596 300 575 q 300 551 300 532 q 300 512 300 512 q 300 471 270 442 q 241 412 200 412 l 100 413 z m 188 510 q 196 509 201 514 q 206 520 206 528 l 206 623 q 206 628 202 633 q 197 638 192 639 q 191 640 190 640 q 189 640 188 640 l 113 641 q 112 640 110 639 q 107 638 104 637 q 100 634 97 630 q 94 627 94 622 l 94 529 q 94 521 99 516 q 104 510 111 509 q 111 509 112 509 q 112 509 113 509 l 188 510 z"},"m":{"x_min":0,"x_max":800,"ha":800,"o":"m 450 0 l 300 0 l 300 500 l 200 500 q 199 499 198 499 q 196 499 195 499 q 178 497 164 483 q 150 469 150 449 l 150 0 l 0 0 l 0 450 q 0 532 59 590 q 118 649 200 649 l 550 650 q 633 649 692 590 q 750 532 750 449 l 750 0 l 600 0 l 600 450 q 600 470 586 484 q 571 499 550 499 l 450 500 l 450 0 z"},"#":{"x_min":0,"x_max":938,"ha":938,"o":"m 783 700 l 743 550 l 888 550 l 848 400 l 703 400 l 663 250 l 808 250 l 768 100 l 623 100 l 583 -50 l 428 -50 l 468 100 l 305 100 l 265 -50 l 110 -50 l 150 100 l 0 100 l 40 250 l 190 250 l 230 400 l 80 400 l 120 550 l 270 550 l 310 700 l 465 700 l 425 550 l 588 550 l 628 700 l 783 700 z m 385 400 l 345 250 l 508 250 l 548 400 l 385 400 z"},",":{"x_min":0,"x_max":200,"ha":200,"o":"m 0 -100 l 0 -50 l 50 0 l 0 0 l 0 150 l 150 150 l 150 0 l 0 -100 z"},"n":{"x_min":0,"x_max":751,"ha":751,"o":"m 0 0 l 0 450 q 0 532 59 590 q 118 649 200 649 l 500 650 q 583 649 642 590 q 700 532 700 449 l 700 0 l 550 0 l 550 450 q 550 469 536 483 q 522 497 505 499 q 504 499 502 499 q 501 499 500 499 l 200 500 q 180 499 165 484 q 150 470 150 449 l 150 0 l 0 0 z"},"h":{"x_min":0,"x_max":700,"ha":700,"o":"m 500 250 l 150 250 l 150 0 l 0 0 l 0 650 l 150 650 l 150 400 l 500 400 l 500 650 l 650 650 l 650 0 l 500 0 l 500 250 z"},"z":{"x_min":0,"x_max":800,"ha":800,"o":"m 520 500 q 519 499 438 499 q 356 499 259 499 q 160 499 79 499 q -2 499 -2 499 l -3 650 l 618 650 q 669 649 706 612 q 743 576 743 524 q 743 484 720 456 q 697 427 661 407 l 211 150 l 750 150 l 750 0 l 119 -1 q 67 -1 31 35 q -5 71 -5 123 q -5 161 14 190 q 34 220 65 235 l 520 500 z"},"B":{"x_min":0,"x_max":750,"ha":750,"o":"m 0 0 l 0 650 q 0 649 78 649 q 155 649 248 649 q 328 649 398 649 q 469 649 489 649 q 572 649 630 590 q 689 532 689 449 q 689 415 678 384 q 668 354 648 328 q 671 302 686 269 q 700 236 700 199 q 700 117 642 58 q 583 0 500 0 q 480 0 408 0 q 336 0 253 0 q 158 0 79 0 q 0 0 0 0 z m 550 200 q 550 220 536 234 q 521 249 500 249 l 149 250 l 150 150 l 500 150 q 521 149 536 164 q 550 179 550 199 z m 494 500 l 150 500 l 150 400 l 494 400 q 514 399 529 414 q 544 429 544 449 q 544 470 529 484 q 514 499 494 499 z"},"K":{"x_min":0,"x_max":750,"ha":750,"o":"m 150 250 l 150 0 l 0 0 l 0 650 l 150 650 l 150 400 l 450 400 q 471 399 484 414 q 496 429 500 449 l 535 650 l 685 650 l 650 450 q 649 444 648 439 q 647 434 647 429 q 643 409 639 390 q 635 371 626 354 q 660 326 680 286 q 700 246 700 199 l 700 0 l 550 0 l 550 200 q 550 220 536 234 q 521 249 500 249 l 150 250 z"},"R":{"x_min":0,"x_max":750,"ha":750,"o":"m 0 650 q 0 649 78 649 q 155 649 248 649 q 328 649 398 649 q 469 649 489 649 q 572 649 630 590 q 689 532 689 449 q 689 415 679 384 q 669 354 653 328 q 676 302 688 269 q 700 236 700 199 l 700 0 l 550 0 l 550 200 q 550 218 538 232 q 525 246 508 249 q 506 249 450 249 q 395 249 329 249 q 262 249 206 249 q 150 249 150 249 l 150 -1 l 0 -1 l 0 650 z m 494 500 l 150 500 l 150 400 l 494 400 q 514 399 529 414 q 544 429 544 449 q 544 470 529 484 q 514 499 494 499 z"},"T":{"x_min":0,"x_max":700,"ha":700,"o":"m 250 500 l 0 500 l 0 650 l 650 650 l 650 500 l 400 500 l 400 0 l 250 0 l 250 500 z"},"P":{"x_min":0,"x_max":750,"ha":750,"o":"m 150 250 l 150 0 l 0 0 l 0 650 l 500 650 q 583 649 642 590 q 700 531 700 448 q 700 366 642 308 q 583 249 500 249 q 473 249 430 249 q 388 249 342 249 q 270 249 210 249 q 150 249 150 249 z m 150 500 l 150 400 l 500 400 q 520 399 535 414 q 550 429 550 449 q 550 470 536 484 q 521 499 500 499 l 150 500 z"},"|":{"x_min":0,"x_max":200,"ha":200,"o":"m 150 -150 l 0 -150 l 0 800 l 150 800 l 150 -150 z"},"t":{"x_min":0,"x_max":700,"ha":700,"o":"m 249 500 l 0 500 l 0 650 l 649 650 l 649 500 l 399 500 l 399 -1 l 249 -1 l 249 500 z"},"M":{"x_min":0,"x_max":800,"ha":800,"o":"m 450 0 l 300 0 l 300 500 l 150 500 l 150 0 l 0 0 l 0 650 l 550 650 q 633 649 692 590 q 750 532 750 449 l 750 0 l 600 0 l 600 450 q 600 470 586 484 q 571 499 550 499 l 450 500 l 450 0 z"},"g":{"x_min":0,"x_max":800,"ha":800,"o":"m 743 650 l 743 500 l 200 500 q 196 499 190 496 q 184 494 178 490 q 167 484 158 473 q 150 462 150 449 l 150 200 q 150 180 164 166 q 178 152 195 149 q 196 149 198 149 q 199 149 200 149 l 550 150 q 571 149 586 164 q 600 179 600 199 q 600 220 586 234 q 571 249 550 249 l 300 250 l 300 400 q 300 399 360 399 q 419 399 490 399 q 505 399 520 399 q 535 399 550 399 q 633 399 692 340 q 750 282 750 199 q 750 117 692 58 q 633 0 550 0 l 200 0 q 118 0 59 58 q 0 117 0 199 q 0 199 0 238 q 0 278 0 325 q 0 368 0 405 q 0 442 0 449 q 0 532 59 590 q 118 649 200 649 l 743 650 z"},"j":{"x_min":0,"x_max":800,"ha":800,"o":"m 750 650 l 750 200 q 750 117 692 58 q 633 0 550 0 l 200 0 q 118 0 59 58 q 0 117 0 199 l 0 350 l 150 350 l 150 200 q 150 180 164 166 q 178 152 195 149 q 196 149 198 149 q 199 149 200 149 l 550 150 q 571 149 586 164 q 600 179 600 199 l 600 650 l 750 650 z"},"i":{"x_min":0,"x_max":200,"ha":200,"o":"m 150 0 l 0 0 l 0 650 l 150 650 l 150 0 z"},"y":{"x_min":0,"x_max":800,"ha":800,"o":"m 450 0 l 300 0 l 300 250 l 200 250 q 118 249 59 308 q 0 367 0 449 l 0 650 l 150 650 l 150 450 q 150 430 164 416 q 178 402 195 399 q 196 399 198 399 q 199 399 200 399 l 550 400 q 571 399 586 414 q 600 429 600 449 l 600 650 l 750 650 l 750 450 q 750 367 692 308 q 633 249 550 249 l 450 250 l 450 0 z"},"@":{"x_min":0,"x_max":975,"ha":975,"o":"m 796 71 l 891 71 q 846 -19 754 -71 q 648 -129 496 -129 q 348 -129 241 -80 q 134 -30 82 67 q 30 164 30 278 q 30 404 89 512 q 148 620 252 674 q 355 728 487 728 q 600 728 688 684 q 775 641 821 560 q 867 480 867 385 q 867 271 797 179 q 709 63 572 63 q 534 63 516 76 q 497 89 491 114 q 438 63 369 63 q 295 63 246 114 q 198 165 198 250 q 198 355 256 441 q 328 546 439 546 q 519 546 557 486 l 568 535 l 686 535 l 618 215 q 612 185 612 176 q 612 165 617 160 q 622 154 630 154 q 651 154 685 180 q 730 214 758 271 q 787 328 787 389 q 787 499 708 572 q 628 646 485 646 q 364 646 280 597 q 196 548 154 458 q 111 369 111 272 q 111 178 158 101 q 206 24 292 -12 q 378 -47 489 -47 q 595 -47 672 -18 q 749 12 796 71 z m 313 255 q 313 198 336 172 q 359 145 393 145 q 418 145 441 157 q 458 166 474 185 q 498 212 515 264 q 532 317 532 362 q 532 412 508 439 q 485 466 450 466 q 411 466 378 436 q 346 407 330 352 q 313 297 313 255 z"},".":{"x_min":0,"x_max":200,"ha":200,"o":"m 150 0 l 0 0 l 0 150 l 150 150 l 150 0 z"},"p":{"x_min":0,"x_max":750,"ha":750,"o":"m 150 250 l 150 0 l 0 0 l 0 650 l 500 650 q 583 649 642 590 q 700 531 700 448 q 700 366 642 308 q 583 249 500 249 q 473 249 430 249 q 388 249 342 249 q 270 249 210 249 q 150 249 150 249 z m 150 500 l 150 400 l 500 400 q 520 399 535 414 q 550 429 550 449 q 550 470 536 484 q 521 499 500 499 l 150 500 z"},"X":{"x_min":0,"x_max":800,"ha":800,"o":"m 200 250 q 199 249 198 249 q 196 249 195 249 q 178 247 164 233 q 150 219 150 199 l 150 0 l 0 0 l 0 200 q 0 235 12 267 q 23 299 44 324 q 23 350 12 382 q 0 414 0 449 l 0 650 l 150 650 l 150 450 q 150 430 164 416 q 178 402 195 399 q 196 399 198 399 q 199 399 200 399 l 550 400 q 571 399 586 414 q 600 429 600 449 l 600 650 l 750 650 l 750 450 q 750 414 738 382 q 727 350 705 324 q 727 299 738 267 q 750 235 750 199 l 750 0 l 600 0 l 600 200 q 600 220 586 234 q 571 249 550 249 l 200 250 z"},"*":{"x_min":0,"x_max":501,"ha":501,"o":"m 146 302 l 54 373 q 98 423 145 468 q 164 486 169 491 q 154 493 82 511 q 30 524 14 530 l 50 637 q 129 605 192 566 q 177 665 177 728 l 286 728 q 286 684 269 565 q 281 570 322 588 q 376 613 423 631 l 455 521 q 387 506 299 491 l 372 409 q 393 384 406 368 l 313 306 l 231 442 q 194 376 146 302 z"},"Y":{"x_min":0,"x_max":800,"ha":800,"o":"m 450 0 l 300 0 l 300 250 l 200 250 q 118 249 59 308 q 0 367 0 449 l 0 650 l 150 650 l 150 450 q 150 430 164 416 q 178 402 195 399 q 196 399 198 399 q 199 399 200 399 l 550 400 q 571 399 586 414 q 600 429 600 449 l 600 650 l 750 650 l 750 450 q 750 367 692 308 q 633 249 550 249 l 450 250 l 450 0 z"},"c":{"x_min":0,"x_max":650,"ha":650,"o":"m 600 0 l 200 0 q 118 0 59 58 q 0 117 0 199 q 0 199 0 238 q 0 278 0 325 q 0 368 0 405 q 0 442 0 449 q 0 532 59 590 q 118 649 200 649 l 600 650 l 600 500 l 200 500 q 197 499 194 498 q 191 498 188 497 q 174 493 162 480 q 150 466 150 449 l 150 200 q 150 179 165 164 q 180 149 200 149 l 600 150 l 600 0 z"},"!":{"x_min":0,"x_max":200,"ha":200,"o":"m 150 0 l 0 0 l 0 150 l 150 150 l 150 0 z m 150 200 l 0 200 l 0 650 l 150 650 l 150 200 z"},"/":{"x_min":0,"x_max":443,"ha":443,"o":"m -1 -125 l 233 750 l 388 750 l 154 -125 l -1 -125 z"},"[":{"x_min":0,"x_max":300,"ha":300,"o":"m 250 -150 l 0 -150 l 0 800 l 250 800 l 250 650 l 150 650 l 150 0 l 250 0 l 250 -150 z"},"6":{"x_min":0,"x_max":650,"ha":650,"o":"m 593 650 l 593 500 l 200 500 q 196 499 190 496 q 184 494 178 490 q 167 484 158 473 q 150 462 150 449 l 150 200 q 150 180 164 166 q 178 152 195 149 q 196 149 198 149 q 199 149 200 149 l 400 150 q 421 149 436 164 q 450 179 450 199 q 450 220 436 234 q 421 249 400 249 l 200 250 l 200 400 q 200 399 259 399 q 318 399 400 399 q 483 399 542 340 q 600 282 600 199 q 600 117 542 58 q 483 0 400 0 l 200 0 q 118 0 59 58 q 0 117 0 199 q 0 199 0 238 q 0 278 0 325 q 0 368 0 405 q 0 442 0 449 q 0 532 59 590 q 118 649 200 649 l 593 650 z"},"r":{"x_min":0,"x_max":750,"ha":750,"o":"m 0 650 q 0 649 78 649 q 155 649 248 649 q 328 649 398 649 q 469 649 489 649 q 572 649 630 590 q 689 532 689 449 q 689 415 679 384 q 669 354 653 328 q 676 302 688 269 q 700 236 700 199 l 700 0 l 550 0 l 550 200 q 550 218 538 232 q 525 246 508 249 q 506 249 450 249 q 395 249 329 249 q 262 249 206 249 q 150 249 150 249 l 150 -1 l 0 -1 l 0 650 z m 494 500 l 150 500 l 150 400 l 494 400 q 514 399 529 414 q 544 429 544 449 q 544 470 529 484 q 514 499 494 499 z"},"2":{"x_min":0,"x_max":650,"ha":650,"o":"m 200 250 q 180 249 165 234 q 150 220 150 199 q 150 179 165 164 q 180 149 200 149 l 598 150 l 598 0 l 200 0 q 118 0 59 58 q 0 117 0 199 q 0 282 59 340 q 118 399 200 399 q 210 399 238 399 q 265 399 296 399 q 333 399 364 399 q 396 399 396 399 q 416 399 431 414 q 446 429 446 449 q 446 470 432 484 q 417 499 396 499 l -4 500 l -4 650 l 396 650 q 479 649 538 590 q 596 532 596 449 q 596 367 538 308 q 479 249 396 249 q 314 249 257 249 q 200 249 200 249 z"},"{":{"x_min":0,"x_max":350,"ha":350,"o":"m 300 -150 l 250 -150 q 168 -150 109 -92 q 50 -33 50 49 q 50 49 50 52 q 50 54 50 58 q 50 74 48 110 q 47 147 40 187 q 35 219 26 249 q 16 279 0 299 l 0 350 q 16 369 26 399 q 35 429 40 461 q 47 503 48 540 q 50 578 50 592 q 50 596 50 598 q 50 599 50 599 q 50 682 109 740 q 168 799 250 799 l 300 800 l 300 650 q 300 649 290 649 q 280 649 268 649 q 263 649 258 649 q 254 649 250 649 q 231 649 217 634 q 203 619 200 599 q 200 599 199 556 q 198 513 193 461 q 188 414 178 374 q 168 334 150 325 q 168 316 178 276 q 188 235 193 188 q 198 136 199 92 q 200 49 200 49 q 203 30 217 15 q 231 0 250 0 l 300 0 l 300 -150 z"},"9":{"x_min":0,"x_max":650,"ha":650,"o":"m 0 0 l 0 150 l 393 150 q 397 149 403 152 q 409 154 416 159 q 426 165 434 176 q 443 187 443 199 l 443 450 q 443 467 430 480 q 417 494 402 498 q 400 498 398 498 q 395 499 393 499 l 193 500 q 172 499 158 484 q 143 470 143 449 q 143 429 158 414 q 172 399 193 399 l 393 400 l 393 250 q 393 249 334 249 q 276 249 193 249 q 111 249 52 308 q -7 367 -7 449 q -7 532 52 590 q 111 649 193 649 l 393 650 q 476 649 534 590 q 593 532 593 449 q 593 449 593 410 q 593 370 593 323 q 593 280 593 243 q 593 206 593 199 q 593 117 534 58 q 476 0 393 0 l 0 0 z"}," ":{"x_min":0,"x_max":675,"ha":675,"o":""},"I":{"x_min":0,"x_max":200,"ha":200,"o":"m 150 0 l 0 0 l 0 650 l 150 650 l 150 0 z"},"H":{"x_min":0,"x_max":700,"ha":700,"o":"m 500 250 l 150 250 l 150 0 l 0 0 l 0 650 l 150 650 l 150 400 l 500 400 l 500 650 l 650 650 l 650 0 l 500 0 l 500 250 z"},"4":{"x_min":0,"x_max":613,"ha":613,"o":"m 0 250 l 0 400 l 204 604 q 228 627 254 638 q 281 649 313 649 q 373 649 416 604 q 460 559 463 505 q 463 503 463 502 q 463 500 463 499 l 463 400 l 563 400 l 563 250 l 463 250 l 463 0 l 313 0 l 313 250 l 0 250 z m 313 450 q 313 460 306 465 q 300 470 291 470 q 290 470 290 470 q 289 471 289 472 q 289 473 289 474 q 289 474 289 475 q 289 475 286 473 q 284 471 276 463 l 213 400 l 313 400 l 313 450 z"},"~":{"x_min":0,"x_max":583,"ha":583,"o":"m 33 253 l 33 380 q 95 447 177 447 q 208 447 234 441 q 260 435 327 408 q 394 381 418 381 q 445 381 481 398 q 517 415 551 451 l 551 319 q 529 296 488 276 q 448 255 405 255 q 381 255 358 261 q 334 267 284 289 q 209 321 166 321 q 98 321 33 253 z"},"D":{"x_min":0,"x_max":750,"ha":750,"o":"m 0 0 l 0 650 l 500 650 q 583 649 642 590 q 700 532 700 449 q 700 442 700 405 q 700 368 700 325 q 700 278 700 238 q 700 199 700 199 q 700 117 642 58 q 583 0 500 0 l 0 0 z m 150 150 l 500 150 q 521 149 536 164 q 550 179 550 199 l 550 450 q 550 467 537 480 q 524 494 509 498 q 507 498 504 498 q 502 499 500 499 l 150 500 l 150 150 z"},"^":{"x_min":0,"x_max":583,"ha":583,"o":"m 56 338 l 240 728 l 349 728 l 527 338 l 389 338 l 292 577 l 196 338 z"},"0":{"x_min":0,"x_max":650,"ha":650,"o":"m 200 0 q 118 0 59 58 q 0 117 0 199 q 0 199 0 238 q 0 278 0 325 q 0 368 0 405 q 0 442 0 449 q 0 532 59 590 q 118 649 200 649 l 400 650 q 483 649 542 590 q 600 532 600 449 q 600 442 600 405 q 600 368 600 325 q 600 278 600 238 q 600 199 600 199 q 600 117 542 58 q 483 0 400 0 l 200 0 z m 400 150 q 421 150 436 164 q 450 179 450 199 l 450 450 q 450 467 437 480 q 424 494 409 498 q 407 498 404 498 q 402 499 400 499 l 200 500 q 196 499 190 496 q 184 494 178 490 q 167 484 158 473 q 150 462 150 449 l 150 200 q 150 180 164 166 q 178 152 195 149 q 196 149 198 149 q 199 149 200 149 l 400 150 z"},"F":{"x_min":0,"x_max":650,"ha":650,"o":"m 150 0 l 0 0 l 0 650 l 594 650 l 594 500 l 150 500 l 150 400 l 575 400 l 575 250 l 150 250 l 150 0 z"},"`":{"x_min":0,"x_max":333,"ha":333,"o":"m 242 582 l 155 582 l 21 728 l 174 728 z"},"k":{"x_min":0,"x_max":750,"ha":750,"o":"m 150 250 l 150 0 l 0 0 l 0 650 l 150 650 l 150 400 l 450 400 q 471 399 486 414 q 500 429 500 449 l 500 650 l 650 650 l 650 450 q 650 424 644 400 q 637 376 626 354 q 660 326 680 286 q 700 246 700 199 l 700 0 l 550 0 l 550 200 q 550 220 536 234 q 521 249 500 249 l 150 250 z"},"u":{"x_min":0,"x_max":750,"ha":750,"o":"m 700 650 l 700 200 q 700 117 642 58 q 583 0 500 0 l 200 0 q 118 0 59 58 q 0 117 0 199 l 0 649 l 150 649 l 150 200 q 150 180 164 166 q 178 152 195 149 q 196 149 198 149 q 199 149 200 149 l 500 150 q 521 149 536 164 q 550 179 550 199 l 550 650 l 700 650 z"},"]":{"x_min":0,"x_max":300,"ha":300,"o":"m 0 -150 l 0 0 l 100 0 l 100 650 l 0 650 l 0 800 l 250 800 l 250 -150 l 0 -150 z"},"U":{"x_min":0,"x_max":750,"ha":750,"o":"m 700 650 l 700 200 q 700 117 642 58 q 583 0 500 0 l 0 0 l 0 649 l 150 649 l 150 150 l 500 150 q 521 149 536 164 q 550 179 550 199 l 550 650 l 700 650 z"},"o":{"x_min":0,"x_max":800,"ha":800,"o":"m 200 0 q 118 0 59 58 q 0 117 0 199 q 0 199 0 238 q 0 278 0 325 q 0 368 0 405 q 0 442 0 449 q 0 532 59 590 q 118 649 200 649 l 550 650 q 633 649 692 590 q 750 532 750 449 q 750 442 750 405 q 750 368 750 325 q 750 278 750 238 q 750 199 750 199 q 750 117 692 58 q 633 0 550 0 l 200 0 z m 550 150 q 571 150 586 164 q 600 179 600 199 l 600 450 q 600 467 587 480 q 574 494 559 498 q 557 498 554 498 q 552 499 550 499 l 200 500 q 196 499 190 496 q 184 494 178 490 q 167 484 158 473 q 150 462 150 449 l 150 200 q 150 180 164 166 q 178 152 195 149 q 196 149 198 149 q 199 149 200 149 l 550 150 z"},"N":{"x_min":0,"x_max":751,"ha":751,"o":"m 0 0 l 0 650 l 500 650 q 583 649 642 590 q 700 532 700 449 l 700 0 l 550 0 l 550 450 q 550 469 536 483 q 522 497 505 499 q 504 499 502 499 q 501 499 500 499 l 150 500 l 150 0 l 0 0 z"},"+":{"x_min":0,"x_max":700,"ha":700,"o":"m 250 250 l 0 250 l 0 400 l 250 400 l 250 650 l 400 650 l 400 400 l 650 400 l 650 250 l 400 250 l 400 0 l 250 0 l 250 250 z"},"G":{"x_min":0,"x_max":800,"ha":800,"o":"m 743 650 l 743 500 l 200 500 q 196 499 190 496 q 184 494 178 490 q 167 484 158 473 q 150 462 150 449 l 150 200 q 150 180 164 166 q 178 152 195 149 q 196 149 198 149 q 199 149 200 149 l 550 150 q 571 149 586 164 q 600 179 600 199 q 600 220 586 234 q 571 249 550 249 l 300 250 l 300 400 q 300 399 360 399 q 419 399 490 399 q 505 399 520 399 q 535 399 550 399 q 633 399 692 340 q 750 282 750 199 q 750 117 692 58 q 633 0 550 0 l 200 0 q 118 0 59 58 q 0 117 0 199 q 0 199 0 238 q 0 278 0 325 q 0 368 0 405 q 0 442 0 449 q 0 532 59 590 q 118 649 200 649 l 743 650 z"},"q":{"x_min":0,"x_max":800,"ha":800,"o":"m 744 -100 l 571 -100 l 514 0 l 200 0 q 118 0 59 58 q 0 117 0 199 q 0 199 0 238 q 0 278 0 325 q 0 368 0 405 q 0 442 0 449 q 0 532 59 590 q 118 649 200 649 l 550 650 q 633 649 692 590 q 750 532 750 449 q 750 442 750 405 q 750 368 750 325 q 750 278 750 238 q 750 199 750 199 q 750 149 726 106 q 703 64 665 35 l 744 -100 z m 600 200 l 600 450 q 600 467 587 480 q 574 494 559 498 q 557 498 554 498 q 552 499 550 499 l 200 500 q 196 499 190 496 q 184 494 178 490 q 167 484 158 473 q 150 462 150 449 l 150 200 q 150 180 164 166 q 178 152 195 149 q 196 149 198 149 q 199 149 200 149 l 428 150 l 399 200 l 571 200 l 589 169 q 594 175 597 183 q 600 191 600 199 z m 744 -100 l 571 -100 l 744 -100 z"},"d":{"x_min":0,"x_max":750,"ha":750,"o":"m 0 0 l 0 650 l 500 650 q 583 649 642 590 q 700 532 700 449 q 700 442 700 405 q 700 368 700 325 q 700 278 700 238 q 700 199 700 199 q 700 117 642 58 q 583 0 500 0 l 0 0 z m 150 150 l 500 150 q 521 149 536 164 q 550 179 550 199 l 550 450 q 550 467 537 480 q 524 494 509 498 q 507 498 504 498 q 502 499 500 499 l 150 500 l 150 150 z"},"1":{"x_min":0,"x_max":350,"ha":350,"o":"m 0 650 l 100 650 q 183 649 242 590 q 300 532 300 449 l 300 0 l 150 0 l 150 450 q 150 470 136 484 q 121 499 100 499 l 0 500 l 0 650 z"},"5":{"x_min":0,"x_max":650,"ha":650,"o":"m 395 250 l 0 250 l 0 650 l 599 650 l 599 500 l 150 500 l 150 400 q 150 399 189 399 q 228 399 274 399 q 314 399 349 399 q 384 399 395 399 q 478 399 536 340 q 595 282 595 199 q 595 117 536 58 q 478 0 395 0 l -3 0 l -3 150 l 395 150 q 416 149 430 164 q 445 179 445 199 q 445 220 430 234 q 416 249 395 249 z"}}}
